<?xml version="1.0" ?><!DOCTYPE svg  PUBLIC '-//W3C//DTD SVG 1.1//EN'  'http://www.w3.org/Graphics/SVG/1.1/DTD/svg11.dtd'><svg enable-background="new 0 0 200 200" height="200px" id="Слой_1" version="1.1" viewBox="0 0 200 200" width="200px" xml:space="preserve" xmlns="http://www.w3.org/2000/svg" xmlns:xlink="http://www.w3.org/1999/xlink"><g><g><g><path d="M158.155,184.21h-8.372c-1.926,0-3.488-1.562-3.488-3.488V30.926H54.909v149.796c0,1.926-1.562,3.488-3.488,3.488h-8.372     c-1.926,0-3.488-1.562-3.488-3.488V26.042c0-5.77,4.694-10.465,10.465-10.465h101.153c5.771,0,10.465,4.694,10.465,10.465     v154.679C161.643,182.648,160.081,184.21,158.155,184.21z"/></g></g><path d="M102.463,30.926l0.412,122.249l44.309,29.867V30.926H102.463z M111.545,103.084c-2.793,0-5.057-3.384-5.057-7.558   c0-4.174,2.264-7.558,5.057-7.558c2.793,0,5.058,3.384,5.058,7.558C116.602,99.7,114.338,103.084,111.545,103.084z"/></g></svg>